<svg xmlns="http://www.w3.org/2000/svg" width="7745" height="1975" viewBox="0 0 7745 1975">
  <defs>
    <style>
      .cls-1 {
        fill: #000;
        fill-rule: evenodd;
      }
    </style>
  </defs>
  <path id="Forma_1" data-name="Forma 1" class="cls-1" d="M1610.51,771.138q-12.3,15.247-24.63,30.5c-11.59,13.886-26.61,26.584-40.59,38.125-27.05,22.344-50.81,46.005-83.95,62.732-27.87,14.067-58.97,22.837-95.06,29.113-35.3,6.139-81.68,3.8-114.14-2.772-113.23-22.932-167.82-69.725-218.22-154.924C986.164,693.168,965.409,603.724,856.646,582.6c-25.393-4.933-59.5-3.273-83.609,1.733-22.634,4.7-43.232,11.021-62.1,19.409C690.9,612.645,594.312,671.726,557.6,764.206,537.3,815.315,514.679,875.259,527.414,950.67c10.739,63.6,29.638,116.27,56.895,163.24,36.823,63.46,83.38,123.76,139.117,168.44,54.014,43.31,121.857,71.05,183.871,106.41q49.6,25.815,99.223,51.64c66.8,38.08,136.42,71.54,201.91,110.21,46.8,27.64,93.7,54.25,137.38,84.91q22.545,15.78,45.1,31.54c40.36-20.22,75.94-47.42,110.32-73.82,127.21-97.64,220.85-236.6,268.18-413.82,22.98-86.06,33.61-211.68,15.26-312.278-9.68-53.052-20.87-102.3-38.16-147.646C1642,445.455,1382.93,206.979,1000.62,211.054l-20.816.693-55.161,4.506c-49.935,7.778-95.745,16-139.117,29.46-173.319,53.775-305.614,157.339-400.7,289.746-23.522,32.756-47.512,68.422-64.874,106.749-28.923,63.847-52.693,129.448-68.692,208.3-29.947,147.6-1.014,314.3,43.366,423.524,85.1,209.43,257.367,381.6,481.532,451.26,44.221,13.74,90.363,23.13,141.2,31.54,100.552,16.63,224.752,2.18,305.992-21.49q31.74-10.215,63.48-20.45,17.01-6.75,34-13.51-8.145-7.635-16.3-15.25c-17.4-14.39-34.33-29.01-52.74-42.63-66.2-49.01-138.06-89.62-211.97-131.71q-91.747-47.64-183.521-95.31c-170.895-97.53-311.984-193.47-389.945-384.71-37.215-91.287-59.966-231.145-32.958-351.438,17.473-77.819,48.922-135.331,90.548-187.85C612.336,380.962,782.33,351.475,832.708,343.1c189.562-31.5,371.772,49.281,452.042,145.22,30.62,36.587,61.54,73.351,77.37,124.771,17.89,58.134,19.09,119.428,65.57,148.339,32.83,20.427,97.89,17.708,142.23,8.665,11.54-2.353,20.46-3.627,33.66-7.625a117.347,117.347,0,0,0,18.24-6.346S1615.62,764.539,1610.51,771.138Z"/>
  <path id="Scorpio" class="cls-1" d="M5158.99,1177.73q54.675-44.76,54.68-128.51,0-39.4-11.92-67.734a135.546,135.546,0,0,0-34.14-48.45q-22.2-20.121-54.27-34.491a646.643,646.643,0,0,0-71.54-26.69q-33.72-10.662-57.97-20.938-24.27-10.261-39.48-22.987T4921.73,799.6q-7.395-15.591-7.39-36.946,0-44.341,32.48-69.794t90.05-25.462q31.245,0,70.3,5.752a720.576,720.576,0,0,1,76.9,15.6l2.46-73.9q-46.875-11.495-84.7-16.008a611.382,611.382,0,0,0-72.37-4.525q-47.7,0-85.93,11.91t-65.38,34.085a148.573,148.573,0,0,0-41.53,53.37q-14.4,31.2-14.39,70.616,0,38.594,10.69,66.923a134.673,134.673,0,0,0,32.07,49.261q21.39,20.939,53.46,36.135t75.66,27.5q29.6,8.227,53.03,17.256t40.29,22.165a93.486,93.486,0,0,1,25.91,30.385q9.045,17.235,9.05,41.05,0,45.18-32.49,68.97-32.475,23.82-96.61,23.81-37.845,0-86.36-7.8a903.468,903.468,0,0,1-91.27-19.29l-2.47,74.72a805.3,805.3,0,0,0,96.21,19.71q50.985,7.38,92.93,7.39Q5104.285,1222.48,5158.99,1177.73Zm377,38.37q27.96-3.3,47.7-9.04v-70.61a375.9,375.9,0,0,1-47.29,7.8q-21.8,2.055-47.28,2.05-66.615,0-96.21-36.95t-29.6-119.063q0-81.288,30.42-118.649,30.435-37.362,97.04-37.362a425.377,425.377,0,0,1,92.92,10.672V772.689a397.924,397.924,0,0,0-50.58-8.623,482.387,482.387,0,0,0-51.39-2.871q-207.225,0-207.23,229.092,0,116.6,51.4,172.853t155.83,56.24A467.185,467.185,0,0,0,5535.99,1216.1Zm456.79-53.97q51.405-58.725,51.4-171.209t-51.4-171.2q-51.39-58.716-150.07-58.716-99.51,0-150.9,58.716t-51.39,171.2q0,112.5,51.39,171.209t150.9,58.7Q5941.38,1220.83,5992.78,1162.13Zm-236.83-48.45q-26.73-37.365-26.72-122.759t26.72-122.342q26.715-36.947,86.76-36.957,59.205,0,86.34,36.957t27.14,122.342q0,85.393-26.73,122.759t-86.75,37.36Q5782.665,1151.04,5755.95,1113.68Zm377.01,98.31h87.99v-322.7q26.31-16.423,60.85-29.145a337.225,337.225,0,0,1,69.08-17.661h32.07V761.2h-24.67q-34.545,8.212-72.37,27.1a649.906,649.906,0,0,0-69.89,40.233h-3.29l-5.76-59.944h-74.01v443.41Zm314.93,181.29h87.99V1214.27q18.915,2.46,40.29,4.52,21.39,2.04,42.77,2.04,106.065,0,161.59-63.63,55.5-63.63,55.51-174.486,0-112.5-42.77-167.1t-127.46-54.607q-84.72,0-129.11,58.3h-4.93l-6.58-50.093h-77.3V1393.28Zm128.28-238.95a362.858,362.858,0,0,1-40.29-6.58V930.156q0-50.074,30.43-75.952t74.83-25.868q55.92,0,81,36.956,25.065,36.946,25.08,123.985,0,90.334-30.84,128.923t-95.8,38.59A402.88,402.88,0,0,1,6576.17,1154.33Zm446.5-521.417q0-50.906-52.63-50.915-27.15,0-39.47,12.315-12.345,12.326-12.34,38.6t12.34,38.589q12.33,12.326,39.47,12.316,52.62,0,52.63-50.9h0Zm-96.22,579.717h87.17V769.214h-87.17V1212.63Zm529.15-50.5q51.4-58.725,51.4-171.209t-51.4-171.2q-51.39-58.716-150.07-58.716-99.51,0-150.9,58.716t-51.39,171.2q0,112.5,51.39,171.209t150.9,58.7Q7404.2,1220.83,7455.6,1162.13Zm-236.83-48.45q-26.73-37.365-26.72-122.759t26.72-122.342q26.73-36.947,86.76-36.957,59.205,0,86.34,36.957t27.14,122.342q0,85.393-26.73,122.759t-86.75,37.36Q7245.5,1151.04,7218.77,1113.68Z"/>
  <path id="Project" class="cls-1" d="M2046.01,1212.91h89.62V1019.94q17.265,1.65,32.9,1.64h31.25q138.975,0,203.94-51.32t64.96-161.347q0-110.855-64.55-161.358t-206-50.5q-72.36,0-152.12,12.316V1212.91Zm125.81-265.637q-22.2-2.049-36.19-4.524V675.889q16.455-2.466,38.24-4.109t40.71-1.643q87.975,0,125.41,32.442,37.41,32.432,37.41,106.334,0,37.777-9.05,64.457t-28.78,43.52q-19.74,16.84-50.98,24.631-31.26,7.811-75.66,7.8Q2194.015,949.322,2171.82,947.273Zm375.77,265h87.99v-322.7q26.3-16.425,60.85-29.145a337.3,337.3,0,0,1,69.07-17.662h32.08V761.473h-24.67q-34.545,8.211-72.38,27.1a649.9,649.9,0,0,0-69.88,40.233h-3.29l-5.76-59.943h-74.01V1212.27Zm629.48-49.86q51.39-58.725,51.4-171.212T3177.07,820q-51.39-58.715-150.07-58.715-99.51,0-150.9,58.715t-51.4,171.2q0,112.5,51.4,171.212t150.9,58.7Q3125.67,1221.11,3177.07,1162.41Zm-236.83-48.45q-26.73-37.365-26.72-122.762t26.72-122.342Q2966.955,831.91,3027,831.9q59.2,0,86.34,36.956,27.12,36.947,27.14,122.342,0,85.4-26.73,122.762T3027,1151.32Q2966.955,1151.32,2940.24,1113.96Zm472.4-480.769q0-50.906-52.63-50.915-27.15,0-39.47,12.315-12.345,12.326-12.34,38.6t12.34,38.589q12.33,12.325,39.47,12.316,52.62,0,52.63-50.9h0ZM3330.4,1393.56q34.53-54.21,54.69-119.48,20.13-65.28,20.15-129.33V769.492h-87.99q0,9.043.4,36.55,0.42,27.5.42,64.042V1108.62q0,41.88-2.88,78.01a619.918,619.918,0,0,1-9.05,68.15,533.168,533.168,0,0,1-15.62,61.59,524.907,524.907,0,0,1-22.61,58.3Zm441.57-180.88q39.48-6.99,70.73-18.48l-4.11-66.5a425.428,425.428,0,0,1-69.09,17.24,411.638,411.638,0,0,1-65.78,5.74q-60.855,0-89.22-30.38t-32.48-100.17h272.19a239.214,239.214,0,0,0,3.7-26.684q1.23-14.375,1.24-34.086,0-197.888-166.94-197.887-97.035,0-147.6,59.943-50.58,59.949-50.58,174.9,0,110.03,50.98,166.683,50.985,56.67,150.49,56.66A439.219,439.219,0,0,0,3771.97,1212.68Zm-14.8-354.318q20.55,31.215,22.21,104.285H3582.02q4.11-69.793,30.42-102.641t77.3-32.848Q3736.615,827.158,3757.17,858.362Zm430.05,358.018q27.96-3.3,47.7-9.04v-70.61a376.2,376.2,0,0,1-47.29,7.8q-21.81,2.04-47.28,2.05-66.615,0-96.21-36.95t-29.61-119.065q0-81.288,30.43-118.65t97.03-37.362a425.534,425.534,0,0,1,92.93,10.672V772.966a398.232,398.232,0,0,0-50.58-8.622,482.387,482.387,0,0,0-51.39-2.871q-207.24,0-207.23,229.092,0,116.6,51.4,172.855t155.83,56.24A467.316,467.316,0,0,0,4187.22,1216.38Zm384-5.94v-68.15a212.735,212.735,0,0,1-27.14,6.16,161.472,161.472,0,0,1-24.66,2.05q-35.37,0-51.82-18.48-16.44-18.465-16.44-57.89V845.037h118.41V769.492H4450.34V644.684l-69.9,9.029L4368.1,769.492h-88.81v75.545h83.88V1093.02q0,126.465,130.76,126.46a331.722,331.722,0,0,0,77.29-9.04h0Z"/>
</svg>
